<svg width="350" height="72" viewBox="0 0 350 72" fill="none" xmlns="http://www.w3.org/2000/svg">
<path d="M0 0H350V64H14.0374L0 47.5V0Z" fill="#F8EF00"/>
<line x1="348.973" x2="348.973" y2="64" stroke="#FF003C" stroke-width="2"/>
<rect x="292" y="56" width="38" height="8" fill="black"/>
<g filter="url(#filter0_d_42_875)">
<line x1="293" y1="56" x2="293" y2="64" stroke="#FF003C" stroke-width="2"/>
</g>
<path d="M303.016 63C302.968 63 302.936 62.9813 302.92 62.944L301.744 60.464C301.739 60.448 301.728 60.44 301.712 60.44H300.352C300.331 60.44 300.32 60.4507 300.32 60.472V62.92C300.32 62.9733 300.293 63 300.24 63H299.832C299.779 63 299.752 62.9733 299.752 62.92V57.48C299.752 57.4267 299.779 57.4 299.832 57.4H301.904C302.363 57.4 302.733 57.544 303.016 57.832C303.299 58.1147 303.44 58.4853 303.44 58.944C303.44 59.3173 303.339 59.6347 303.136 59.896C302.933 60.1573 302.659 60.3253 302.312 60.4C302.291 60.4107 302.285 60.424 302.296 60.44L303.496 62.904C303.501 62.9147 303.504 62.928 303.504 62.944C303.504 62.9813 303.483 63 303.44 63H303.016ZM300.352 57.896C300.331 57.896 300.32 57.9067 300.32 57.928V59.952C300.32 59.9733 300.331 59.984 300.352 59.984H301.84C302.149 59.984 302.4 59.888 302.592 59.696C302.784 59.504 302.88 59.2533 302.88 58.944C302.88 58.6347 302.784 58.384 302.592 58.192C302.4 57.9947 302.149 57.896 301.84 57.896H300.352ZM306.714 62.464C306.698 62.4907 306.704 62.504 306.73 62.504H309.242C309.296 62.504 309.322 62.5307 309.322 62.584V62.92C309.322 62.9733 309.296 63 309.242 63H306.05C305.997 63 305.97 62.9733 305.97 62.92V62.584C305.97 62.5467 305.984 62.5147 306.01 62.488C306.192 62.2747 306.6 61.7733 307.234 60.984L307.826 60.248C308.328 59.6133 308.578 59.12 308.578 58.768C308.578 58.4853 308.482 58.2587 308.29 58.088C308.098 57.9173 307.848 57.832 307.538 57.832C307.234 57.832 306.989 57.92 306.802 58.096C306.616 58.2667 306.525 58.4933 306.53 58.776V59.024C306.53 59.0773 306.504 59.104 306.45 59.104H306.034C305.981 59.104 305.954 59.0773 305.954 59.024V58.704C305.965 58.2933 306.117 57.9627 306.41 57.712C306.709 57.4613 307.085 57.336 307.538 57.336C307.858 57.336 308.141 57.3973 308.386 57.52C308.632 57.6427 308.821 57.8133 308.954 58.032C309.088 58.2453 309.154 58.488 309.154 58.76C309.154 59.2133 308.904 59.76 308.402 60.4C308.141 60.736 307.637 61.3547 306.89 62.256L306.714 62.464ZM315.027 60.552C315.075 60.7867 315.099 61.0267 315.099 61.272C315.099 61.5333 315.075 61.7573 315.027 61.944C314.937 62.2853 314.755 62.5573 314.484 62.76C314.212 62.9573 313.883 63.056 313.499 63.056C313.121 63.056 312.798 62.96 312.531 62.768C312.265 62.576 312.083 62.32 311.987 62C311.95 61.8827 311.926 61.7653 311.915 61.648V61.632C311.915 61.5893 311.939 61.568 311.987 61.568H312.411C312.465 61.568 312.494 61.5947 312.499 61.648C312.499 61.68 312.51 61.7333 312.531 61.808C312.585 62.0373 312.694 62.2213 312.859 62.36C313.03 62.4933 313.241 62.56 313.491 62.56C313.747 62.56 313.961 62.488 314.132 62.344C314.307 62.2 314.422 62.0027 314.475 61.752C314.507 61.6293 314.523 61.4693 314.523 61.272C314.523 61.0907 314.51 60.9173 314.484 60.752C314.446 60.5067 314.339 60.32 314.163 60.192C313.987 60.064 313.769 60 313.507 60C313.273 60 313.062 60.0533 312.875 60.16C312.689 60.2667 312.569 60.408 312.515 60.584C312.499 60.632 312.47 60.656 312.427 60.656H311.995C311.942 60.656 311.915 60.6293 311.915 60.576V57.48C311.915 57.4267 311.942 57.4 311.995 57.4H314.796C314.849 57.4 314.875 57.4267 314.875 57.48V57.816C314.875 57.8693 314.849 57.896 314.796 57.896H312.515C312.494 57.896 312.483 57.9067 312.483 57.928L312.475 59.864C312.475 59.8747 312.478 59.8827 312.483 59.888C312.494 59.8933 312.505 59.8907 312.515 59.88C312.649 59.7573 312.806 59.664 312.987 59.6C313.169 59.5307 313.361 59.496 313.563 59.496C313.942 59.496 314.262 59.5893 314.523 59.776C314.785 59.9573 314.953 60.216 315.027 60.552Z" fill="#F8EF00"/>
<defs>
<filter id="filter0_d_42_875" x="288" y="56" width="10" height="16" filterUnits="userSpaceOnUse" color-interpolation-filters="sRGB">
<feFlood flood-opacity="0" result="BackgroundImageFix"/>
<feColorMatrix in="SourceAlpha" type="matrix" values="0 0 0 0 0 0 0 0 0 0 0 0 0 0 0 0 0 0 127 0" result="hardAlpha"/>
<feOffset dy="4"/>
<feGaussianBlur stdDeviation="2"/>
<feComposite in2="hardAlpha" operator="out"/>
<feColorMatrix type="matrix" values="0 0 0 0 0 0 0 0 0 0 0 0 0 0 0 0 0 0 0.25 0"/>
<feBlend mode="normal" in2="BackgroundImageFix" result="effect1_dropShadow_42_875"/>
<feBlend mode="normal" in="SourceGraphic" in2="effect1_dropShadow_42_875" result="shape"/>
</filter>
</defs>
</svg>
